<?xml version="1.0" encoding="utf-8"?>
<!-- Generator: Adobe Illustrator 24.2.1, SVG Export Plug-In . SVG Version: 6.00 Build 0)  -->
<svg version="1.1" id="レイヤー_1" xmlns="http://www.w3.org/2000/svg" xmlns:xlink="http://www.w3.org/1999/xlink" x="0px"
	 y="0px" viewBox="0 0 320 320" style="enable-background:new 0 0 320 320;" xml:space="preserve">
<g>
	<path d="M319.3,194.7c-3.1-40.4-35-55-52.4-71.3c-17.5-16.3-25.8-44.1-55.3-47.8c-29.4-3.7-35.5,12.6-51.5,12.6
		c-16.1,0-22.1-16.3-51.6-12.6c-29.5,3.7-37.8,31.5-55.3,47.8c-17.5,16.3-49.3,31-52.4,71.3c-3.2,40.5,41.5,53.6,54.7,53.6
		c12.1,0,38.6-5.9,47.4-25.4l0.6,0.4c1.7,2,13.9,16.9,34.7,14.4c13.8-1.7,21.2-12.4,21.6-12.9l0.6-0.3c0,0,7.4,11.3,21.6,13
		c20.8,2.5,33-12.4,34.7-14.4l0.5-0.3c8.7,19.6,35.3,25.5,47.5,25.5C277.8,248.2,322.5,235.2,319.3,194.7z"/>
</g>
</svg>
